<mxfile host="65bd71144e">
    <diagram id="UdAcT7TkqNWxi-ry30Ia" name="Page-1">
        <mxGraphModel dx="1028" dy="1409" grid="1" gridSize="10" guides="1" tooltips="1" connect="1" arrows="1" fold="1" page="1" pageScale="1" pageWidth="850" pageHeight="1100" math="0" shadow="0">
            <root>
                <mxCell id="0"/>
                <mxCell id="1" parent="0"/>
                <mxCell id="8" value="strip 6" style="shape=cylinder3;whiteSpace=wrap;html=1;boundedLbl=1;backgroundOutline=1;size=15;fontSize=19;strokeColor=#000000;" parent="1" vertex="1">
                    <mxGeometry x="30" y="330" width="100" height="70" as="geometry"/>
                </mxCell>
                <mxCell id="7" value="strip 5" style="shape=cylinder3;whiteSpace=wrap;html=1;boundedLbl=1;backgroundOutline=1;size=15;fontSize=19;strokeColor=#000000;" parent="1" vertex="1">
                    <mxGeometry x="30" y="290" width="100" height="70" as="geometry"/>
                </mxCell>
                <mxCell id="6" value="strip 4" style="shape=cylinder3;whiteSpace=wrap;html=1;boundedLbl=1;backgroundOutline=1;size=15;fontSize=19;strokeColor=#000000;" parent="1" vertex="1">
                    <mxGeometry x="30" y="250" width="100" height="70" as="geometry"/>
                </mxCell>
                <mxCell id="5" value="strip 3" style="shape=cylinder3;whiteSpace=wrap;html=1;boundedLbl=1;backgroundOutline=1;size=15;fontSize=19;fillColor=#a20025;fontColor=#ffffff;strokeColor=#000000;" parent="1" vertex="1">
                    <mxGeometry x="30" y="210" width="100" height="70" as="geometry"/>
                </mxCell>
                <mxCell id="4" value="strip 2" style="shape=cylinder3;whiteSpace=wrap;html=1;boundedLbl=1;backgroundOutline=1;size=15;fontSize=19;fillColor=#a20025;fontColor=#ffffff;strokeColor=#000000;" parent="1" vertex="1">
                    <mxGeometry x="30" y="170" width="100" height="70" as="geometry"/>
                </mxCell>
                <mxCell id="3" value="strip 1" style="shape=cylinder3;whiteSpace=wrap;html=1;boundedLbl=1;backgroundOutline=1;size=15;fontSize=19;fillColor=#a20025;fontColor=#ffffff;strokeColor=#000000;" parent="1" vertex="1">
                    <mxGeometry x="30" y="130" width="100" height="70" as="geometry"/>
                </mxCell>
                <mxCell id="2" value="strip 0" style="shape=cylinder3;whiteSpace=wrap;html=1;boundedLbl=1;backgroundOutline=1;size=15;fontSize=19;fillColor=#a20025;fontColor=#ffffff;strokeColor=#000000;" parent="1" vertex="1">
                    <mxGeometry x="30" y="90" width="100" height="70" as="geometry"/>
                </mxCell>
                <mxCell id="17" value="strip 8" style="shape=cylinder3;whiteSpace=wrap;html=1;boundedLbl=1;backgroundOutline=1;size=15;fontSize=19;strokeColor=#000000;" parent="1" vertex="1">
                    <mxGeometry x="210" y="170" width="100" height="70" as="geometry"/>
                </mxCell>
                <mxCell id="18" value="strip 4" style="shape=cylinder3;whiteSpace=wrap;html=1;boundedLbl=1;backgroundOutline=1;size=15;fontSize=19;strokeColor=#000000;" parent="1" vertex="1">
                    <mxGeometry x="210" y="130" width="100" height="70" as="geometry"/>
                </mxCell>
                <mxCell id="19" value="strip 0" style="shape=cylinder3;whiteSpace=wrap;html=1;boundedLbl=1;backgroundOutline=1;size=15;fontSize=19;fillColor=#a20025;fontColor=#ffffff;strokeColor=#000000;" parent="1" vertex="1">
                    <mxGeometry x="210" y="90" width="100" height="70" as="geometry"/>
                </mxCell>
                <mxCell id="22" value="strip 10" style="shape=cylinder3;whiteSpace=wrap;html=1;boundedLbl=1;backgroundOutline=1;size=15;fontSize=19;strokeColor=#000000;" parent="1" vertex="1">
                    <mxGeometry x="490" y="170" width="100" height="70" as="geometry"/>
                </mxCell>
                <mxCell id="23" value="strip 6" style="shape=cylinder3;whiteSpace=wrap;html=1;boundedLbl=1;backgroundOutline=1;size=15;fontSize=19;strokeColor=#000000;" parent="1" vertex="1">
                    <mxGeometry x="490" y="130" width="100" height="70" as="geometry"/>
                </mxCell>
                <mxCell id="24" value="strip 2" style="shape=cylinder3;whiteSpace=wrap;html=1;boundedLbl=1;backgroundOutline=1;size=15;fontSize=19;fillColor=#a20025;fontColor=#ffffff;strokeColor=#000000;" parent="1" vertex="1">
                    <mxGeometry x="490" y="90" width="100" height="70" as="geometry"/>
                </mxCell>
                <mxCell id="25" value="strip 9" style="shape=cylinder3;whiteSpace=wrap;html=1;boundedLbl=1;backgroundOutline=1;size=15;fontSize=19;strokeColor=#000000;" parent="1" vertex="1">
                    <mxGeometry x="350" y="170" width="100" height="70" as="geometry"/>
                </mxCell>
                <mxCell id="26" value="strip 5" style="shape=cylinder3;whiteSpace=wrap;html=1;boundedLbl=1;backgroundOutline=1;size=15;fontSize=19;strokeColor=#000000;" parent="1" vertex="1">
                    <mxGeometry x="350" y="130" width="100" height="70" as="geometry"/>
                </mxCell>
                <mxCell id="27" value="strip 1" style="shape=cylinder3;whiteSpace=wrap;html=1;boundedLbl=1;backgroundOutline=1;size=15;fontSize=19;fillColor=#a20025;fontColor=#ffffff;strokeColor=#000000;" parent="1" vertex="1">
                    <mxGeometry x="350" y="90" width="100" height="70" as="geometry"/>
                </mxCell>
                <mxCell id="28" value="strip 11" style="shape=cylinder3;whiteSpace=wrap;html=1;boundedLbl=1;backgroundOutline=1;size=15;fontSize=19;strokeColor=#000000;" parent="1" vertex="1">
                    <mxGeometry x="640" y="170" width="100" height="70" as="geometry"/>
                </mxCell>
                <mxCell id="29" value="strip 7" style="shape=cylinder3;whiteSpace=wrap;html=1;boundedLbl=1;backgroundOutline=1;size=15;fontSize=19;strokeColor=#000000;" parent="1" vertex="1">
                    <mxGeometry x="640" y="130" width="100" height="70" as="geometry"/>
                </mxCell>
                <mxCell id="30" value="strip 3" style="shape=cylinder3;whiteSpace=wrap;html=1;boundedLbl=1;backgroundOutline=1;size=15;fontSize=19;fillColor=#a20025;fontColor=#ffffff;strokeColor=#000000;" parent="1" vertex="1">
                    <mxGeometry x="640" y="90" width="100" height="70" as="geometry"/>
                </mxCell>
                <mxCell id="35" value="Disk 2" style="text;html=1;strokeColor=none;fillColor=none;align=center;verticalAlign=middle;whiteSpace=wrap;rounded=0;fontSize=19;" parent="1" vertex="1">
                    <mxGeometry x="495" y="40" width="90" height="50" as="geometry"/>
                </mxCell>
                <mxCell id="36" value="Disk 3" style="text;html=1;strokeColor=none;fillColor=none;align=center;verticalAlign=middle;whiteSpace=wrap;rounded=0;fontSize=19;" parent="1" vertex="1">
                    <mxGeometry x="645" y="40" width="90" height="50" as="geometry"/>
                </mxCell>
                <mxCell id="37" value="" style="rounded=1;whiteSpace=wrap;html=1;fontSize=19;dashed=1;fontColor=#ffffff;fillColor=none;strokeWidth=6;strokeColor=#005700;" parent="1" vertex="1">
                    <mxGeometry x="190" y="90" width="570" height="70" as="geometry"/>
                </mxCell>
                <mxCell id="38" value="Stripe" style="text;html=1;strokeColor=none;fillColor=none;align=center;verticalAlign=middle;whiteSpace=wrap;rounded=0;dashed=1;fontSize=25;fontColor=#005700;" parent="1" vertex="1">
                    <mxGeometry x="780" y="115" width="60" height="20" as="geometry"/>
                </mxCell>
                <mxCell id="42" value="..." style="text;html=1;strokeColor=none;fillColor=none;align=center;verticalAlign=bottom;whiteSpace=wrap;rounded=0;fontSize=40;fontStyle=1" parent="1" vertex="1">
                    <mxGeometry x="215" y="240" width="90" height="30" as="geometry"/>
                </mxCell>
                <mxCell id="43" value="..." style="text;html=1;strokeColor=none;fillColor=none;align=center;verticalAlign=bottom;whiteSpace=wrap;rounded=0;fontSize=40;fontStyle=1" parent="1" vertex="1">
                    <mxGeometry x="355" y="240" width="90" height="30" as="geometry"/>
                </mxCell>
                <mxCell id="44" value="..." style="text;html=1;strokeColor=none;fillColor=none;align=center;verticalAlign=bottom;whiteSpace=wrap;rounded=0;fontSize=40;fontStyle=1" parent="1" vertex="1">
                    <mxGeometry x="495" y="240" width="90" height="30" as="geometry"/>
                </mxCell>
                <mxCell id="45" value="..." style="text;html=1;strokeColor=none;fillColor=none;align=center;verticalAlign=bottom;whiteSpace=wrap;rounded=0;fontSize=40;fontStyle=1" parent="1" vertex="1">
                    <mxGeometry x="645" y="240" width="90" height="30" as="geometry"/>
                </mxCell>
                <mxCell id="46" value="..." style="text;html=1;strokeColor=none;fillColor=none;align=center;verticalAlign=bottom;whiteSpace=wrap;rounded=0;fontSize=40;fontStyle=1" parent="1" vertex="1">
                    <mxGeometry x="35" y="400" width="90" height="30" as="geometry"/>
                </mxCell>
                <mxCell id="47" value="" style="endArrow=none;dashed=1;html=1;strokeWidth=6;fillColor=#6a00ff;strokeColor=#3700CC;" edge="1" parent="1">
                    <mxGeometry width="50" height="50" relative="1" as="geometry">
                        <mxPoint x="160" y="400" as="sourcePoint"/>
                        <mxPoint x="160" y="20" as="targetPoint"/>
                    </mxGeometry>
                </mxCell>
                <mxCell id="48" value="Disk 0" style="text;html=1;strokeColor=none;fillColor=none;align=center;verticalAlign=middle;whiteSpace=wrap;rounded=0;fontSize=19;" vertex="1" parent="1">
                    <mxGeometry x="215" y="40" width="90" height="50" as="geometry"/>
                </mxCell>
                <mxCell id="49" value="Disk" style="text;html=1;strokeColor=none;fillColor=none;align=center;verticalAlign=middle;whiteSpace=wrap;rounded=0;fontSize=19;" vertex="1" parent="1">
                    <mxGeometry x="35" y="40" width="90" height="50" as="geometry"/>
                </mxCell>
                <mxCell id="50" value="Disk 1" style="text;html=1;strokeColor=none;fillColor=none;align=center;verticalAlign=middle;whiteSpace=wrap;rounded=0;fontSize=19;" vertex="1" parent="1">
                    <mxGeometry x="355" y="40" width="90" height="50" as="geometry"/>
                </mxCell>
                <mxCell id="51" value="Physical" style="text;html=1;strokeColor=none;fillColor=none;align=center;verticalAlign=middle;whiteSpace=wrap;rounded=0;fontSize=25;" vertex="1" parent="1">
                    <mxGeometry x="425" y="10" width="90" height="50" as="geometry"/>
                </mxCell>
                <mxCell id="52" value="Logical" style="text;html=1;strokeColor=none;fillColor=none;align=center;verticalAlign=middle;whiteSpace=wrap;rounded=0;fontSize=25;" vertex="1" parent="1">
                    <mxGeometry x="35" y="10" width="90" height="50" as="geometry"/>
                </mxCell>
            </root>
        </mxGraphModel>
    </diagram>
</mxfile>